<?xml version="1.0" encoding="UTF-8" standalone="no"?>
<!-- Created with Inkscape (http://www.inkscape.org/) -->

<svg
   width="210mm"
   height="297mm"
   viewBox="0 0 210 297"
   version="1.1"
   id="svg1"
   xml:space="preserve"
   inkscape:version="1.4 (86a8ad7, 2024-10-11)"
   sodipodi:docname="toolbar_icon2.svg"
   inkscape:export-filename="toolbar_icon2.png"
   inkscape:export-xdpi="14.463268"
   inkscape:export-ydpi="14.463268"
   xmlns:inkscape="http://www.inkscape.org/namespaces/inkscape"
   xmlns:sodipodi="http://sodipodi.sourceforge.net/DTD/sodipodi-0.dtd"
   xmlns:xlink="http://www.w3.org/1999/xlink"
   xmlns="http://www.w3.org/2000/svg"
   xmlns:svg="http://www.w3.org/2000/svg"><sodipodi:namedview
     id="namedview1"
     pagecolor="#ffffff"
     bordercolor="#000000"
     borderopacity="0.25"
     inkscape:showpageshadow="2"
     inkscape:pageopacity="0.0"
     inkscape:pagecheckerboard="0"
     inkscape:deskcolor="#d1d1d1"
     inkscape:document-units="mm"
     inkscape:zoom="0.36756309"
     inkscape:cx="572.69081"
     inkscape:cy="579.49236"
     inkscape:window-width="1718"
     inkscape:window-height="1360"
     inkscape:window-x="1706"
     inkscape:window-y="0"
     inkscape:window-maximized="0"
     inkscape:current-layer="svg1" /><defs
     id="defs1"><linearGradient
       id="linearGradient69"
       inkscape:collect="always"><stop
         style="stop-color:#d4e2f7;stop-opacity:1;"
         offset="0"
         id="stop70" /><stop
         style="stop-color:#d3ebf6;stop-opacity:1;"
         offset="0.5"
         id="stop72" /><stop
         style="stop-color:#d1e2fa;stop-opacity:1;"
         offset="1"
         id="stop71" /></linearGradient><linearGradient
       id="swatch65"><stop
         style="stop-color:#000000;stop-opacity:0.17302799;"
         offset="0"
         id="stop65" /></linearGradient><linearGradient
       id="linearGradient58"
       inkscape:collect="always"><stop
         style="stop-color:#fde003;stop-opacity:0.51172707;"
         offset="0"
         id="stop58" /><stop
         style="stop-color:#fde003;stop-opacity:0;"
         offset="1"
         id="stop59" /></linearGradient><linearGradient
       id="linearGradient21"
       inkscape:swatch="gradient"><stop
         style="stop-color:#ffffff;stop-opacity:1;"
         offset="0"
         id="stop22" /><stop
         style="stop-color:#ffffff;stop-opacity:0;"
         offset="1"
         id="stop23" /></linearGradient><linearGradient
       id="linearGradient3"
       inkscape:collect="always"><stop
         style="stop-color:#c8ebfc;stop-opacity:0.65903306;"
         offset="0.05027933"
         id="stop3" /><stop
         style="stop-color:#2352a0;stop-opacity:0.68702292;"
         offset="0.93296087"
         id="stop4" /></linearGradient><linearGradient
       id="linearGradient1"
       inkscape:collect="always"><stop
         style="stop-color:#fe7100;stop-opacity:0;"
         offset="0"
         id="stop2" /><stop
         style="stop-color:#eb5f00;stop-opacity:1;"
         offset="0.25826567"
         id="stop1" /></linearGradient><linearGradient
       inkscape:collect="always"
       xlink:href="#linearGradient1"
       id="linearGradient2"
       x1="110.89302"
       y1="83.845901"
       x2="110.89302"
       y2="42.820541"
       gradientUnits="userSpaceOnUse"
       gradientTransform="matrix(1.6804895,0,0,1.6804895,-93.339998,-41.997069)" /><linearGradient
       inkscape:collect="always"
       xlink:href="#linearGradient3"
       id="linearGradient4"
       x1="55.852036"
       y1="49.001183"
       x2="155.27327"
       y2="202.09647"
       gradientUnits="userSpaceOnUse" /><linearGradient
       inkscape:collect="always"
       xlink:href="#linearGradient58"
       id="linearGradient59"
       x1="91.695908"
       y1="39.160076"
       x2="91.695908"
       y2="85.840744"
       gradientUnits="userSpaceOnUse" /><linearGradient
       inkscape:collect="always"
       xlink:href="#linearGradient69"
       id="linearGradient71"
       x1="55.630707"
       y1="42.557137"
       x2="155.49452"
       y2="208.75844"
       gradientUnits="userSpaceOnUse" /></defs><g
     inkscape:label="shield"
     inkscape:groupmode="layer"
     id="layer1"
     style="display:inline;fill:#000000"><path
       id="path7"
       style="display:inline;fill:url(#linearGradient4);stroke-width:11.3507;stroke-dasharray:none;stroke:url(#linearGradient71);stroke-opacity:1"
       inkscape:label="path1"
       d="M 89.101562,18.927734 C 65.967869,26.63559 42.82905,34.332368 19.839844,42.462891 c -3.662986,2.624714 -5.59922,7.229653 -5.548828,11.623047 0.31406,12.350917 0.2154,24.708935 0.239543,37.063279 -0.0042,15.114313 0.119384,30.260553 1.059285,45.331253 0.480258,5.5289 1.799053,11.17738 3.690728,16.50643 5.365166,15.05891 14.552526,28.62758 25.378807,40.30852 11.404274,12.26324 24.711273,22.63715 38.788057,31.65277 7.283102,4.63737 14.806688,8.8963 22.519364,12.77642 12.85075,-4.94783 25.13467,-11.32344 36.50586,-19.11719 10.66197,-7.32559 20.56347,-15.92588 29.09532,-25.69711 10.1383,-11.71151 17.84901,-25.64353 21.79104,-40.61179 2.21086,-8.11959 3.28184,-16.51749 3.28222,-24.95039 0.14695,-11.68581 0.14028,-23.37297 0.19278,-35.059458 0.0132,-14.491179 -0.069,-28.991109 -0.75334,-43.467298 -0.50094,-3.382822 -3.32085,-5.881763 -6.29206,-7.241256 -4.02424,-1.952114 -8.40996,-2.962785 -12.59598,-4.494324 -23.80292,-7.889572 -47.60087,-15.793139 -71.39381,-23.712747 -5.56576,1.851562 -11.131512,3.703125 -16.697268,5.554687 z"
       sodipodi:nodetypes="ccccccccccccccccccc"
       transform="matrix(1.0052277,0,0,0.88125848,-0.72806565,12.598232)" /></g><g
     inkscape:groupmode="layer"
     id="layer4"
     inkscape:label="swipe 1"
     style="display:inline;fill:#f9f9f9"
     transform="translate(-8.637973,-8.9978885)"><path
       d="m 144.00676,132.45789 -33.75377,-6.75076 V 97.072864 C 110.363,88.647421 104.417,81.355243 96.141876,79.766998 85.806738,78.020037 76.382961,85.987166 76.386316,96.468909 v 37.597641 l -15.742355,20.54014 c -9.573102,11.20403 -8.962105,27.87516 1.405467,38.34836 l 13.546668,13.68777 c 5.315595,5.33355 12.530284,8.34001 20.06035,8.35943 h 42.818764 c 15.57897,-0.0187 28.20356,-12.64326 28.22222,-28.22223 V 160.1326 c -0.0286,-13.44398 -9.51304,-25.01168 -22.69067,-27.67471 z"
       id="path4"
       style="display:inline;fill:#000000;fill-opacity:1;stroke-width:5.644;stroke-dasharray:none"
       sodipodi:nodetypes="cccccccccccccc"
       inkscape:label="outer" /><path
       d="m 155.40854,186.78002 c 0,9.35202 -7.58131,16.93334 -16.93333,16.93334 H 95.656446 c -4.523067,-0.0131 -8.85575,-1.8221 -12.04524,-5.0292 L 70.064539,184.97945 C 63.78528,178.59067 63.499668,168.43913 69.409783,161.7074 l 6.976533,-9.10449 v 22.88823 c 0,3.11734 2.527104,5.64444 5.644445,5.64444 3.117341,0 5.644445,-2.5271 5.644445,-5.64444 V 96.468909 c -0.0021,-3.516269 3.176489,-6.178644 6.63787,-5.559778 2.817265,0.689512 4.760976,3.265403 4.65102,6.163733 v 33.262716 c -5.45e-4,2.68262 1.887134,4.99502 4.515554,5.53155 l 38.29191,7.65951 c 7.91333,1.59292 13.61336,8.53393 13.63698,16.60596 z"
       id="path3"
       style="display:inline;fill:#ffffff;fill-opacity:1;stroke:#ffffff;stroke-width:5.644;stroke-dasharray:none;stroke-opacity:1"
       sodipodi:nodetypes="sscccccssscccccccs"
       inkscape:label="inner" /></g><g
     inkscape:groupmode="layer"
     id="layer5"
     inkscape:label="flame"
     transform="matrix(1.3332522,0,0,1.3332522,-42.131693,-28.909711)"><path
       id="path1-5"
       style="display:inline;mix-blend-mode:normal;fill:url(#linearGradient2);stroke:none"
       d="m 92.521484,24.095703 c -3.071626,3.713091 -6.591142,7.158254 -8.722714,11.544843 -2.643364,4.899517 -4.349738,10.21863 -6.249942,15.43172 -0.927906,-3.58394 -1.85438,-7.168251 -2.783203,-10.751954 -5.089654,4.913376 -10.639637,9.646889 -13.962288,16.018293 -3.472238,6.882095 -3.740383,15.057881 -1.778924,22.422408 2.905092,11.005581 11.595861,20.23103 22.359999,23.894977 11.985834,4.16628 26.114738,1.26482 35.470648,-7.315818 8.39654,-7.73273 12.84757,-19.746809 10.91505,-31.066104 -0.83579,-4.864562 -3.04284,-9.427878 -6.1208,-13.267843 -4.78907,-6.135845 -11.0623,-10.834827 -16.80738,-16.003545 -4.14073,-3.612087 -8.180091,-7.3515 -12.043102,-11.242914 -0.09245,0.111979 -0.184896,0.223958 -0.277344,0.335937 z"
       inkscape:label="outer" /><path
       id="path21"
       style="display:inline;mix-blend-mode:normal;stroke:none;fill-opacity:0.51172709;fill-rule:evenodd;fill:url(#linearGradient59)"
       d="m 94.580078,44.625 c 6.151162,5.896609 13.156202,11.050025 18.117192,18.076172 1.37865,2.119805 2.1878,4.744315 2.31815,7.270172 0.10724,2.195868 -0.19395,4.364875 -1.03573,6.361861 -1.23513,1.947436 -4.11512,2.12387 -5.91807,0.892307 -3.89557,-1.769787 -6.32288,-5.815136 -10.458701,-7.15623 -2.791565,-0.605425 -5.462514,0.866537 -7.722945,2.335597 -4.098284,2.686715 -7.723841,6.002549 -11.575286,9.016996 -2.35035,0.444976 -4.485354,-1.220396 -5.876485,-2.865331 -3.492157,-3.516598 -4.778504,-8.941728 -3.703993,-13.767173 0.433491,-2.617517 1.680655,-4.975027 3.043368,-7.244449 1.656664,2.272869 3.816726,4.600707 6.754571,4.987561 2.519569,0.286394 4.810631,-1.230596 6.437122,-3.015756 2.328894,-2.499622 3.96804,-5.552604 5.441765,-8.610251 1.128055,-2.416935 2.071652,-4.913581 3.030605,-7.400617 0.382812,0.373047 0.765625,0.746094 1.148437,1.119141 z"
       inkscape:label="inner" /></g></svg>
