<?xml version="1.0" encoding="UTF-8" standalone="no"?>
<!-- Created with Inkscape (http://www.inkscape.org/) -->

<svg
   width="210mm"
   height="297mm"
   viewBox="0 0 210 297"
   version="1.1"
   id="svg1"
   xml:space="preserve"
   inkscape:version="1.4 (86a8ad7, 2024-10-11)"
   sodipodi:docname="toolbar_icon.svg"
   inkscape:export-filename="toolbar_icon.png"
   inkscape:export-xdpi="13.987591"
   inkscape:export-ydpi="13.987591"
   xmlns:inkscape="http://www.inkscape.org/namespaces/inkscape"
   xmlns:sodipodi="http://sodipodi.sourceforge.net/DTD/sodipodi-0.dtd"
   xmlns:xlink="http://www.w3.org/1999/xlink"
   xmlns="http://www.w3.org/2000/svg"
   xmlns:svg="http://www.w3.org/2000/svg"><sodipodi:namedview
     id="namedview1"
     pagecolor="#ffffff"
     bordercolor="#000000"
     borderopacity="0.25"
     inkscape:showpageshadow="2"
     inkscape:pageopacity="0.0"
     inkscape:pagecheckerboard="0"
     inkscape:deskcolor="#d1d1d1"
     inkscape:document-units="mm"
     inkscape:zoom="0.73512617"
     inkscape:cx="535.28226"
     inkscape:cy="421.69632"
     inkscape:window-width="1718"
     inkscape:window-height="1360"
     inkscape:window-x="1706"
     inkscape:window-y="0"
     inkscape:window-maximized="0"
     inkscape:current-layer="layer4" /><defs
     id="defs1"><linearGradient
       id="linearGradient3"
       inkscape:collect="always"><stop
         style="stop-color:#fd3838;stop-opacity:1;"
         offset="0.05027933"
         id="stop3" /><stop
         style="stop-color:#ce7272;stop-opacity:1;"
         offset="0.93296087"
         id="stop4" /></linearGradient><linearGradient
       id="linearGradient1"
       inkscape:collect="always"><stop
         style="stop-color:#fe7100;stop-opacity:0;"
         offset="0"
         id="stop2" /><stop
         style="stop-color:#eb5f00;stop-opacity:1;"
         offset="0.25826567"
         id="stop1" /></linearGradient><linearGradient
       inkscape:collect="always"
       xlink:href="#linearGradient1"
       id="linearGradient2"
       x1="110.89302"
       y1="83.845901"
       x2="110.89302"
       y2="42.820541"
       gradientUnits="userSpaceOnUse"
       gradientTransform="matrix(1.6804895,0,0,1.6804895,-93.339999,-41.997071)" /><linearGradient
       inkscape:collect="always"
       xlink:href="#linearGradient3"
       id="linearGradient4"
       x1="55.852036"
       y1="49.001183"
       x2="155.27327"
       y2="202.09647"
       gradientUnits="userSpaceOnUse" /></defs><g
     inkscape:label="shield"
     inkscape:groupmode="layer"
     id="layer1"
     style="display:inline;fill:#000000"><path
       id="path1"
       style="display:inline;fill:#000000;stroke-width:11.3507;stroke-dasharray:none"
       d="M 85.07,6.88 C 61.4,14.85 37.61,22.45 14.15,31 7.34,34.87 2.92,42.42 1.85,49.92 c -0.6,3.59 -0.02,7.51 -0.09,11.23 0.36,25.34 -0.6,50.79 1.09,76.04 0.95,12.23 5.23,23.98 10.86,34.79 11,20.78 27.74,38.02 46.35,52.24 14.07,10.69 29.3,19.85 45.3,27.37 25.5,-9.13 49.29,-23.26 68.56,-42.51 7.18,-7.16 13.61,-14.95 18.84,-23.57 10.41,-16.94 16.47,-36.75 16.65,-56.74 0.15,-21.28 0.32,-42.56 0.01,-63.84 -0.2,-5.86 -0.12,-11.74 -0.66,-17.58 C 208.05,42.03 205.2,37.13 201.04,33.76 196.3,29.69 190.2,27.88 184.33,26.08 158.14,17.45 131.98,8.72 105.82,0.01 98.9,2.3 91.99,4.59 85.07,6.88 Z"
       inkscape:label="inner"
       transform="matrix(1.0052277,0,0,0.88125848,-0.72806565,12.598232)" /><path
       id="path7"
       style="display:inline;fill:url(#linearGradient4);stroke-width:11.3507;stroke-dasharray:none"
       inkscape:label="path1"
       d="M 89.101562,18.927734 C 65.967869,26.63559 42.82905,34.332368 19.839844,42.462891 c -3.662986,2.624714 -5.59922,7.229653 -5.548828,11.623047 0.31406,12.350917 0.2154,24.708935 0.239543,37.063279 -0.0042,15.114313 0.119384,30.260553 1.059285,45.331253 0.480258,5.5289 1.799053,11.17738 3.690728,16.50643 5.365166,15.05891 14.552526,28.62758 25.378807,40.30852 11.404274,12.26324 24.711273,22.63715 38.788057,31.65277 7.283102,4.63737 14.806688,8.8963 22.519364,12.77642 12.85075,-4.94783 25.13467,-11.32344 36.50586,-19.11719 10.66197,-7.32559 20.56347,-15.92588 29.09532,-25.69711 10.1383,-11.71151 17.84901,-25.64353 21.79104,-40.61179 2.21086,-8.11959 3.28184,-16.51749 3.28222,-24.95039 0.14695,-11.68581 0.14028,-23.37297 0.19278,-35.059458 0.0132,-14.491179 -0.069,-28.991109 -0.75334,-43.467298 -0.50094,-3.382822 -3.32085,-5.881763 -6.29206,-7.241256 -4.02424,-1.952114 -8.40996,-2.962785 -12.59598,-4.494324 -23.80292,-7.889572 -47.60087,-15.793139 -71.39381,-23.712747 -5.56576,1.851562 -11.131512,3.703125 -16.697268,5.554687 z"
       sodipodi:nodetypes="ccccccccccccccccccc"
       transform="matrix(1.0052277,0,0,0.88125848,-0.72806565,12.598232)" /></g><g
     inkscape:groupmode="layer"
     id="layer4"
     inkscape:label="swipe 1"
     style="display:inline;fill:#f9f9f9"
     transform="translate(-8.637973,-8.9978885)"><path
       d="m 144.00676,132.45789 -33.75377,-6.75076 V 97.072864 C 110.363,88.647421 104.417,81.355243 96.141876,79.766998 85.806738,78.020037 76.382961,85.987166 76.386316,96.468909 v 37.597641 l -15.742355,20.54014 c -9.573102,11.20403 -8.962105,27.87516 1.405467,38.34836 l 13.546668,13.68777 c 5.315595,5.33355 12.530284,8.34001 20.06035,8.35943 h 42.818764 c 15.57897,-0.0187 28.20356,-12.64326 28.22222,-28.22223 V 160.1326 c -0.0286,-13.44398 -9.51304,-25.01168 -22.69067,-27.67471 z"
       id="path4"
       style="display:inline;fill:#000000;fill-opacity:1;stroke-width:5.644;stroke-dasharray:none"
       sodipodi:nodetypes="cccccccccccccc"
       inkscape:label="outer" /><path
       d="m 155.40854,186.78002 c 0,9.35202 -7.58131,16.93334 -16.93333,16.93334 H 95.656446 c -4.523067,-0.0131 -8.85575,-1.8221 -12.04524,-5.0292 L 70.064539,184.97945 C 63.78528,178.59067 63.499668,168.43913 69.409783,161.7074 l 6.976533,-9.10449 v 22.88823 c 0,3.11734 2.527104,5.64444 5.644445,5.64444 3.117341,0 5.644445,-2.5271 5.644445,-5.64444 V 96.468909 c -0.0021,-3.516269 3.176489,-6.178644 6.63787,-5.559778 2.817265,0.689512 4.760976,3.265403 4.65102,6.163733 v 33.262716 c -5.45e-4,2.68262 1.887134,4.99502 4.515554,5.53155 l 38.29191,7.65951 c 7.91333,1.59292 13.61336,8.53393 13.63698,16.60596 z"
       id="path3"
       style="display:inline;fill:#ffffff;fill-opacity:1;stroke:#ffffff;stroke-width:5.644;stroke-dasharray:none;stroke-opacity:1"
       sodipodi:nodetypes="sscccccssscccccccs"
       inkscape:label="inner" /></g><g
     inkscape:groupmode="layer"
     id="layer5"
     inkscape:label="flame"
     transform="matrix(1.3332522,0,0,1.3332522,-42.131693,-28.909711)"><path
       id="path1-5"
       style="display:inline;fill:url(#linearGradient2);stroke-width:0.154072"
       d="m 92.958833,23.109739 c -0.964672,0.502022 -1.535599,1.496224 -2.382146,2.165588 -4.0654,4.016181 -7.294095,8.849378 -9.5089,14.10585 -1.31904,2.992449 -2.313242,6.103021 -3.366504,9.203749 -0.777644,-2.687298 -1.230448,-5.463187 -2.106527,-8.130798 -0.629989,-0.856391 -1.988403,-0.492179 -2.460895,0.344525 -4.931634,4.665858 -10.217637,9.292341 -13.239616,15.493796 -2.50027,5.010383 -3.287756,10.877157 -2.766047,16.419093 0.324839,3.720874 1.21076,7.39253 2.63808,10.768878 4.045712,9.607335 12.422599,17.38376 22.482739,20.28762 8.248921,2.49043 17.46251,2.03762 25.307853,-1.44701 8.28829,-3.602745 15.1099,-10.463723 18.60436,-18.801235 2.2345,-5.246629 3.24839,-11.014968 2.7759,-16.704557 -0.315,-3.514159 -1.21076,-7.166128 -2.83495,-10.375135 -3.25822,-6.575512 -8.7411,-11.674486 -14.20429,-16.419092 -5.25647,-4.488674 -10.56217,-8.918285 -15.474117,-13.790857 -1.063106,-1.023733 -2.096683,-2.076996 -3.149945,-3.110572 -0.09844,-0.0098 -0.206716,-0.03938 -0.305152,-0.01968 z m 0.807214,21.723015 c 5.91077,6.302507 19.266583,15.423395 20.192953,22.89204 1.06851,8.189014 -0.73371,14.368362 -11.44672,4.409071 -5.343611,-4.967661 -8.955819,-4.987574 -23.493246,7.784239 -2.657145,3.543044 -9.165902,-4.622909 -9.680986,-8.528921 C 68.371189,62.586669 72.014136,58.823865 72.021642,59.10356 84.34117,74.350093 93.740638,44.832754 93.766047,44.832754 Z"
       sodipodi:nodetypes="cccccccccccccccccccccscccc" /></g></svg>
